<svg width="35" height="29" viewBox="0 0 35 29" fill="none" xmlns="http://www.w3.org/2000/svg">
<path d="M19.4935 0.21742C19.4246 0.286277 19.3699 0.368045 19.3326 0.458051C19.2953 0.548057 19.2761 0.644535 19.2761 0.741968C19.2761 0.839401 19.2953 0.93588 19.3326 1.02589C19.3699 1.11589 19.4246 1.19766 19.4935 1.26652L31.573 13.3459L0.74143 13.3459C0.544796 13.3459 0.356215 13.4241 0.217173 13.5631C0.0781319 13.7021 1.98632e-05 13.8907 1.98632e-05 14.0874C1.98632e-05 14.284 0.0781319 14.4726 0.217173 14.6116C0.356215 14.7507 0.544796 14.8288 0.74143 14.8288L31.573 14.8288L19.4935 26.9082C19.4247 26.9771 19.37 27.0589 19.3327 27.1489C19.2955 27.2389 19.2763 27.3353 19.2763 27.4327C19.2763 27.5302 19.2955 27.6266 19.3327 27.7166C19.37 27.8066 19.4247 27.8884 19.4935 27.9573C19.5624 28.0262 19.6442 28.0808 19.7342 28.1181C19.8242 28.1554 19.9207 28.1746 20.0181 28.1746C20.1155 28.1746 20.212 28.1554 20.302 28.1181C20.392 28.0808 20.4738 28.0262 20.5426 27.9573L33.888 14.6119C33.957 14.543 34.0116 14.4613 34.049 14.3713C34.0863 14.2813 34.1055 14.1848 34.1055 14.0874C34.1055 13.9899 34.0863 13.8934 34.049 13.8034C34.0116 13.7134 33.957 13.6317 33.888 13.5628L20.5426 0.21742C20.4738 0.148486 20.392 0.0938004 20.302 0.0564895C20.212 0.0191786 20.1155 -2.47055e-05 20.0181 -2.47055e-05C19.9207 -2.47055e-05 19.8242 0.0191786 19.7342 0.0564895C19.6442 0.0938004 19.5624 0.148486 19.4935 0.21742Z" fill="white"/>
</svg>
