<svg width="13" height="10" viewBox="0 0 13 10" fill="none" xmlns="http://www.w3.org/2000/svg">
<path d="M4.08363 10C8.9895 10 11.6732 6.15174 11.6732 2.82038C11.6743 2.71218 11.6726 2.60398 11.6683 2.49578C12.1906 2.13753 12.6415 1.69425 13 1.18662C12.5118 1.3899 11.9946 1.52415 11.4652 1.58506C12.023 1.26947 12.4408 0.772809 12.6409 0.187446C12.117 0.481831 11.5433 0.688197 10.9452 0.797414C10.5431 0.392069 10.0111 0.12354 9.43157 0.0334218C8.852 -0.0566967 8.25721 0.0366247 7.73934 0.298931C7.22146 0.561236 6.80941 0.977888 6.56699 1.48435C6.32458 1.99081 6.26533 2.55881 6.39844 3.10037C5.33786 3.05026 4.30028 2.78955 3.35305 2.33515C2.40582 1.88075 1.57013 1.24284 0.90025 0.462816C0.560285 1.01905 0.456585 1.67689 0.610193 2.30286C0.763802 2.92882 1.16321 3.47602 1.72737 3.83341C1.30439 3.82047 0.890657 3.71293 0.52 3.51958V3.55419C0.521034 4.13676 0.734353 4.70115 1.12395 5.1521C1.51355 5.60305 2.05556 5.91293 2.6585 6.02944C2.42959 6.08917 2.19313 6.11893 1.95569 6.1179C1.78825 6.11955 1.62107 6.10485 1.45681 6.07406C1.62694 6.57579 1.95876 7.01451 2.40568 7.32863C2.8526 7.64274 3.3922 7.8165 3.94875 7.8255C3.00308 8.52775 1.83564 8.90888 0.63375 8.90775C0.42193 8.90926 0.210231 8.8977 0 8.87314C1.21991 9.60961 2.63678 10.0006 4.08363 10Z" fill="white"/>
</svg>
