<svg width="15" height="14" viewBox="0 0 15 14" fill="none" xmlns="http://www.w3.org/2000/svg">
<path d="M3.20496 1.74999C3.20476 2.14781 3.04653 2.52926 2.76509 2.81043C2.48364 3.09159 2.10203 3.24944 1.70421 3.24924C1.30638 3.24904 0.92493 3.09081 0.643766 2.80937C0.362602 2.52792 0.204757 2.14631 0.204956 1.74849C0.205155 1.35066 0.363381 0.969211 0.644826 0.688047C0.926272 0.406883 1.30788 0.249038 1.70571 0.249237C2.10353 0.249436 2.48498 0.407662 2.76615 0.689107C3.04731 0.970553 3.20516 1.35216 3.20496 1.74999ZM3.24996 4.35999H0.249956V13.75H3.24996V4.35999ZM7.98996 4.35999H5.00496V13.75H7.95996V8.82249C7.95996 6.07749 11.5375 5.82249 11.5375 8.82249V13.75H14.5V7.80249C14.5 3.17499 9.20496 3.34749 7.95996 5.61999L7.98996 4.35999Z" fill="white"/>
</svg>
