<svg width="15" height="16" viewBox="0 0 15 16" fill="none" xmlns="http://www.w3.org/2000/svg">
<path d="M4.35 0H10.65C13.05 0 15 2.08 15 4.64V11.36C15 12.5906 14.5417 13.7708 13.7259 14.641C12.9101 15.5111 11.8037 16 10.65 16H4.35C1.95 16 0 13.92 0 11.36V4.64C0 3.4094 0.458302 2.22919 1.27409 1.35902C2.08987 0.488856 3.19631 0 4.35 0ZM4.2 1.6C3.48392 1.6 2.79716 1.90343 2.29081 2.44353C1.78446 2.98364 1.5 3.71618 1.5 4.48V11.52C1.5 13.112 2.7075 14.4 4.2 14.4H10.8C11.5161 14.4 12.2028 14.0966 12.7092 13.5565C13.2155 13.0164 13.5 12.2838 13.5 11.52V4.48C13.5 2.888 12.2925 1.6 10.8 1.6H4.2ZM11.4375 2.8C11.6861 2.8 11.9246 2.90536 12.1004 3.09289C12.2762 3.28043 12.375 3.53478 12.375 3.8C12.375 4.06522 12.2762 4.31957 12.1004 4.50711C11.9246 4.69464 11.6861 4.8 11.4375 4.8C11.1889 4.8 10.9504 4.69464 10.7746 4.50711C10.5988 4.31957 10.5 4.06522 10.5 3.8C10.5 3.53478 10.5988 3.28043 10.7746 3.09289C10.9504 2.90536 11.1889 2.8 11.4375 2.8ZM7.5 4C8.49456 4 9.44839 4.42143 10.1517 5.17157C10.8549 5.92172 11.25 6.93913 11.25 8C11.25 9.06087 10.8549 10.0783 10.1517 10.8284C9.44839 11.5786 8.49456 12 7.5 12C6.50544 12 5.55161 11.5786 4.84835 10.8284C4.14509 10.0783 3.75 9.06087 3.75 8C3.75 6.93913 4.14509 5.92172 4.84835 5.17157C5.55161 4.42143 6.50544 4 7.5 4ZM7.5 5.6C6.90326 5.6 6.33097 5.85286 5.90901 6.30294C5.48705 6.75303 5.25 7.36348 5.25 8C5.25 8.63652 5.48705 9.24697 5.90901 9.69706C6.33097 10.1471 6.90326 10.4 7.5 10.4C8.09674 10.4 8.66903 10.1471 9.09099 9.69706C9.51295 9.24697 9.75 8.63652 9.75 8C9.75 7.36348 9.51295 6.75303 9.09099 6.30294C8.66903 5.85286 8.09674 5.6 7.5 5.6Z" fill="white"/>
</svg>
